<svg xmlns="http://www.w3.org/2000/svg" width="288" height="314" fill="none" viewBox="0 0 288 314">
  <path fill="#000" fill-rule="evenodd" d="M60 0h13.267v2H60c-14.199 0-24.647.004-32.652 1.08-7.947 1.069-13.187 3.161-17.147 7.121-3.96 3.96-6.052 9.2-7.12 17.147C2.004 35.353 2 45.801 2 60v.248H0V60C0 31.716 0 17.574 8.787 8.787 17.574 0 31.716 0 60 0Zm167.833 2h-13.266V0h13.266c28.285 0 42.427 0 51.214 8.787 8.786 8.787 8.786 22.929 8.786 51.213v.248h-2V60c0-14.199-.004-24.647-1.08-32.652-1.069-7.947-3.161-13.187-7.121-17.147-3.96-3.96-9.199-6.052-17.147-7.12C252.48 2.004 242.032 2 227.833 2Zm58 252.589c0 13.899-.019 24.169-1.08 32.063-1.069 7.947-3.161 13.187-7.121 17.147-3.96 3.96-9.199 6.052-17.147 7.12-8.005 1.077-18.453 1.081-32.652 1.081h-13.266v2h13.266c28.285 0 42.427 0 51.214-8.787 8.725-8.725 8.786-22.732 8.786-50.624h-2ZM73.267 314H60c-28.284 0-42.426 0-51.213-8.787C.06 296.488 0 282.481 0 254.589h2c0 13.899.02 24.169 1.08 32.063 1.069 7.947 3.161 13.187 7.121 17.147 3.96 3.96 9.2 6.052 17.147 7.12C35.353 311.996 45.801 312 60 312h13.267v2Z" clip-rule="evenodd"/>
  <path stroke="#130F26" stroke-linecap="round" stroke-linejoin="round" stroke-width="1.5" d="M143.177 127.686v58.476m29.266-29.238H113.91"/>
  <path stroke="#130F26" stroke-linecap="round" stroke-linejoin="round" stroke-width="1.5" d="M180.576 77.184h-74.799c-26.074 0-42.417 18.454-42.417 44.578v70.476c0 26.124 16.267 44.579 42.417 44.579h74.799c26.15 0 42.417-18.455 42.417-44.579v-70.476c0-26.124-16.267-44.578-42.417-44.578Z" clip-rule="evenodd"/>
</svg>
