<svg xmlns="http://www.w3.org/2000/svg" width="145" height="159" fill="none" viewBox="0 0 145 159">
  <path fill="#000" fill-rule="evenodd" d="M8.074 8.508C14.078 2.504 22.581.602 36.388 0v2.002c-3.615.159-6.845.408-9.752.8-7.948 1.068-13.188 3.16-17.148 7.12-3.96 3.96-6.051 9.2-7.12 17.147a81.978 81.978 0 0 0-.36 3.16H0C.934 20.197 3.09 13.491 8.074 8.508ZM117.69 2.8c-2.907-.39-6.137-.64-9.752-.8V0c13.807.602 22.31 2.504 28.314 8.508 4.983 4.983 7.14 11.69 8.074 21.721h-2.009a82.352 82.352 0 0 0-.359-3.16c-1.069-7.948-3.161-13.187-7.121-17.147-3.959-3.96-9.199-6.052-17.147-7.12Zm24.586 125.836c-.094.943-.2 1.854-.318 2.735-1.069 7.948-3.161 13.188-7.121 17.148-3.959 3.96-9.199 6.052-17.147 7.12-2.907.391-6.137.641-9.752.8v2.001c13.807-.602 22.31-2.504 28.314-8.507 4.912-4.913 7.078-11.5 8.033-21.297h-2.009ZM36.387 158.441c-13.806-.602-22.31-2.504-28.313-8.507-4.913-4.913-7.079-11.5-8.033-21.297H2.05c.094.943.2 1.854.318 2.735 1.069 7.948 3.16 13.188 7.12 17.148 3.96 3.96 9.2 6.052 17.148 7.12 2.907.391 6.137.641 9.752.8v2.001Z" clip-rule="evenodd"/>
  <path stroke="#130F26" stroke-linecap="round" stroke-linejoin="round" stroke-width="1.5" d="M71.788 64.377v29.61m14.819-14.805H56.968"/>
  <path stroke="#130F26" stroke-linecap="round" stroke-linejoin="round" stroke-width="1.5" d="M90.726 38.804H52.849c-13.202 0-21.478 9.344-21.478 22.573v35.687c0 13.228 8.237 22.573 21.479 22.573h37.876c13.241 0 21.478-9.345 21.478-22.573V61.377c0-13.229-8.237-22.573-21.478-22.573Z" clip-rule="evenodd"/>
</svg>
