<svg xmlns="http://www.w3.org/2000/svg" width="24" height="24" fill="none" viewBox="0 0 24 24">
  <path fill="#000" d="M9.439 22C6.462 21.983 4 15.906 4 12.812 4 7.757 7.792 6.65 9.253 6.65c.659 0 1.362.259 1.982.488.434.16.883.324 1.132.324.15 0 .502-.14.812-.263.663-.264 1.487-.592 2.448-.592h.005c.717 0 2.891.158 4.198 2.12l.306.46-.44.333c-.63.475-1.778 1.341-1.778 3.057 0 2.033 1.3 2.814 1.925 3.19.276.166.561.337.561.712 0 .244-1.95 5.49-4.781 5.49-.693 0-1.183-.208-1.615-.392-.437-.186-.814-.346-1.438-.346-.315 0-.715.15-1.138.308-.578.216-1.232.46-1.974.46h-.02Zm6.488-20c.073 2.66-1.828 4.504-3.728 4.388C11.886 4.266 14.1 2 15.927 2Z"/>
</svg>
