<svg xmlns="http://www.w3.org/2000/svg" width="20" height="21" fill="none" viewBox="0 0 20 21">
  <path stroke="#130F26" stroke-linecap="round" stroke-linejoin="round" stroke-width="1.5" d="m.75 1.25 2.08.36.963 11.473a1.8 1.8 0 0 0 1.8 1.653h10.91a1.8 1.8 0 0 0 1.784-1.546l.95-6.558A1.341 1.341 0 0 0 18.1 5.113c-.064-.009-14.937-.014-14.937-.014m8.962 3.696h2.773"/>
  <path fill="#130F26" fill-rule="evenodd" stroke="#130F26" stroke-linecap="round" stroke-linejoin="round" stroke-width="1.5" d="M5.154 18.203a.544.544 0 1 1 0 1.088.544.544 0 0 1 0-1.088Zm11.281 0a.545.545 0 1 1 0 1.09.545.545 0 0 1 0-1.09Z" clip-rule="evenodd"/>
</svg>
