<svg xmlns="http://www.w3.org/2000/svg" width="24" height="24" fill="none" viewBox="0 0 24 24">
  <path stroke="#fff" stroke-linecap="round" stroke-linejoin="round" stroke-width="1.5" d="m2.75 3.25 2.08.36.963 11.473a1.8 1.8 0 0 0 1.8 1.653h10.909a1.8 1.8 0 0 0 1.785-1.546l.949-6.558a1.341 1.341 0 0 0-1.135-1.519c-.064-.009-14.937-.014-14.937-.014m8.961 3.696h2.773"/>
  <path fill="#fff" fill-rule="evenodd" stroke="#fff" stroke-linecap="round" stroke-linejoin="round" stroke-width="1.5" d="M7.154 20.203a.544.544 0 1 1 0 1.088.544.544 0 0 1 0-1.088Zm11.281 0a.545.545 0 1 1 0 1.09.545.545 0 0 1 0-1.09Z" clip-rule="evenodd"/>
</svg>
