<svg xmlns="http://www.w3.org/2000/svg" width="24" height="24" fill="none" viewBox="0 0 24 24">
  <path stroke="#fff" stroke-linecap="round" stroke-linejoin="round" stroke-width="1.5" d="M15.04 4.051c1.01.402 1.32 1.803 1.732 2.252a1.94 1.94 0 0 0 1.331.604 3.147 3.147 0 0 1 3.147 3.146v5.794a4.22 4.22 0 0 1-4.22 4.22H6.97a4.22 4.22 0 0 1-4.22-4.22v-5.794a3.147 3.147 0 0 1 3.147-3.147c.326 0 .917-.152 1.331-.603.413-.45.721-1.85 1.731-2.252 1.011-.401 5.071-.401 6.081 0Z" clip-rule="evenodd"/>
  <path stroke="#fff" stroke-linecap="round" stroke-linejoin="round" stroke-width="2" d="M17.495 9.5h.01"/>
  <path stroke="#fff" stroke-linecap="round" stroke-linejoin="round" stroke-width="1.5" d="M15.179 13.128a3.179 3.179 0 1 0-6.357 0 3.179 3.179 0 0 0 6.357 0Z" clip-rule="evenodd"/>
</svg>
