<svg xmlns="http://www.w3.org/2000/svg" width="353" height="245" fill="none" viewBox="0 0 353 245">
  <rect width="325" height="208" x="3" y="23" fill="#320055" rx="20"/>
  <path fill="url(#a)" fill-opacity=".13" d="M335.115 135.982c-31.555 29.664-29.813-20.16-59.477-51.715-29.664-31.555-79.5-32.892-47.945-62.556 31.555-29.664 81.183-28.13 110.846 3.425 29.664 31.555 28.131 81.182-3.424 110.846Z"/>
  <path fill="url(#b)" fill-opacity=".13" d="M300.564 132.747c-21.93 20.616-20.72-14.011-41.336-35.942-20.616-21.93-55.252-22.86-33.321-43.476 21.93-20.616 56.421-19.55 77.037 2.38 20.617 21.93 19.551 56.422-2.38 77.038Z"/>
  <path fill="url(#c)" fill-opacity=".13" d="M29.655 150.893c25.767-13.862 15.146 16.87 28.022 40.804 12.876 23.935 44.372 32.009 18.605 45.871-25.767 13.861-57.093 5.695-69.968-18.24-12.876-23.934-2.426-54.574 23.341-68.435Z"/>
  <path fill="#fff" fill-opacity=".3" d="M284 190c0 9.391-7.61 17-17 17s-17-7.611-17-17 7.612-17 17-17 17 7.611 17 17Z"/>
  <path fill="#fff" fill-opacity=".4" d="M287.001 173c-3.811 0-7.32 1.27-10.155 3.39l.013.002c.558.538 1.173.918 1.647 1.538l-3.535.056a17.376 17.376 0 0 0-1.535 1.8h6.235c.474.57.913 1.065 1.311 1.694h-8.677c-.318.547-.612 1.11-.868 1.694h10.532c.276.584.522 1.024.731 1.641h-11.887c-.189.587-.35 1.187-.473 1.799h12.858c.126.588.223 1.132.289 1.686h-13.402A17.064 17.064 0 0 0 270 190h13.584c0 .602-.042 1.159-.104 1.7h-13.395c.058.576.143 1.143.255 1.7h12.838a20.27 20.27 0 0 1-.478 1.68h-11.926c.18.581.399 1.146.639 1.696h10.556c-.292.619-.624 1.114-.989 1.693h-8.705c.343.595.722 1.163 1.134 1.707l6.262.094c-.534.64-1.219 1.026-1.843 1.587.034.028-.998-.003-3.029-.035 3.09 3.189 7.41 5.178 12.202 5.178 9.389 0 16.999-7.611 16.999-17s-7.609-17-16.999-17Z"/>
  <path fill="#fff" d="M46.022 78h-9.045V62.295h9.045v2.728h-5.715v3.449h5.317V71.2h-5.317v4.05h5.715V78Zm6.831.215c-1.41 0-2.52-.548-3.33-1.644-.802-1.095-1.203-2.614-1.203-4.554 0-1.97.408-3.502 1.225-4.598.823-1.103 1.955-1.654 3.395-1.654 1.51 0 2.663.587 3.458 1.761h.108c-.165-.895-.247-1.693-.247-2.395v-3.846h3.287V78h-2.514l-.634-1.558h-.14c-.744 1.182-1.88 1.773-3.405 1.773Zm1.15-2.61c.838 0 1.45-.244 1.837-.731.394-.487.609-1.314.644-2.481v-.355c0-1.289-.2-2.213-.601-2.771-.394-.559-1.039-.838-1.934-.838-.73 0-1.3.311-1.708.934-.4.616-.601 1.515-.601 2.697 0 1.181.204 2.07.612 2.664.408.587.992.88 1.75.88Zm13.943-7.51c-.694 0-1.239.223-1.632.667-.394.437-.62 1.06-.677 1.869h4.597c-.014-.81-.225-1.432-.633-1.87-.409-.443-.96-.665-1.655-.665Zm.462 10.12c-1.933 0-3.445-.534-4.533-1.6-1.089-1.068-1.633-2.579-1.633-4.534 0-2.012.502-3.566 1.504-4.662 1.01-1.103 2.403-1.654 4.179-1.654 1.697 0 3.018.483 3.964 1.45.945.967 1.418 2.302 1.418 4.007v1.59H65.56c.036.93.312 1.657.828 2.18.515.523 1.239.784 2.17.784.723 0 1.407-.075 2.051-.225.645-.15 1.318-.39 2.02-.72v2.535a7.528 7.528 0 0 1-1.837.634c-.652.143-1.447.215-2.385.215ZM87.057 78H83.78v-7.015c0-.866-.154-1.514-.462-1.944-.308-.437-.798-.655-1.471-.655-.917 0-1.58.308-1.988.924-.408.608-.612 1.622-.612 3.04V78h-3.276V65.99h2.503l.44 1.536h.183a3.434 3.434 0 0 1 1.504-1.31c.644-.301 1.375-.451 2.191-.451 1.397 0 2.456.38 3.18 1.138.723.752 1.085 1.84 1.085 3.266V78Zm22.214 0h-3.319v-6.778h-6.22V78h-3.33V62.295h3.33v6.155h6.22v-6.155h3.319V78Zm11.344 0-.634-1.633h-.085c-.552.695-1.121 1.178-1.708 1.45-.581.265-1.34.398-2.278.398-1.153 0-2.062-.33-2.728-.988-.659-.66-.989-1.597-.989-2.815 0-1.275.444-2.213 1.332-2.814.896-.61 2.242-.946 4.039-1.01l2.084-.065v-.526c0-1.217-.623-1.826-1.869-1.826-.959 0-2.087.29-3.383.87l-1.085-2.213c1.382-.723 2.914-1.085 4.597-1.085 1.612 0 2.847.351 3.706 1.053.86.702 1.289 1.769 1.289 3.201V78h-2.288Zm-.967-5.564-1.267.042c-.953.03-1.662.201-2.127.516-.466.315-.698.795-.698 1.44 0 .923.53 1.385 1.59 1.385.759 0 1.364-.218 1.815-.655.458-.437.687-1.017.687-1.74v-.989ZM134.645 78h-9.486v-1.934l5.565-7.573h-5.232V65.99h8.959v2.127l-5.414 7.38h5.608V78Zm10.011 0-.634-1.633h-.085c-.552.695-1.121 1.178-1.708 1.45-.581.265-1.34.398-2.278.398-1.153 0-2.062-.33-2.728-.988-.659-.66-.989-1.597-.989-2.815 0-1.275.444-2.213 1.332-2.814.896-.61 2.242-.946 4.039-1.01l2.084-.065v-.526c0-1.217-.623-1.826-1.869-1.826-.959 0-2.087.29-3.383.87l-1.085-2.213c1.382-.723 2.914-1.085 4.597-1.085 1.612 0 2.847.351 3.706 1.053.86.702 1.289 1.769 1.289 3.201V78h-2.288Zm-.967-5.564-1.267.042c-.953.03-1.662.201-2.127.516-.466.315-.698.795-.698 1.44 0 .923.53 1.385 1.59 1.385.759 0 1.364-.218 1.815-.655.458-.437.687-1.017.687-1.74v-.989Zm13.342-6.671c.444 0 .813.032 1.107.096l-.247 3.073a3.759 3.759 0 0 0-.967-.108c-1.046 0-1.862.269-2.449.806-.58.537-.871 1.289-.871 2.256V78h-3.276V65.99h2.482l.483 2.02h.161a4.485 4.485 0 0 1 1.504-1.622 3.722 3.722 0 0 1 2.073-.623Zm7.09 12.45c-1.411 0-2.521-.548-3.33-1.644-.802-1.095-1.203-2.614-1.203-4.554 0-1.97.408-3.502 1.224-4.598.824-1.103 1.956-1.654 3.395-1.654 1.511 0 2.664.587 3.459 1.761h.107c-.164-.895-.247-1.693-.247-2.395v-3.846h3.287V78H168.3l-.634-1.558h-.14c-.744 1.182-1.88 1.773-3.405 1.773Zm1.15-2.61c.837 0 1.45-.244 1.836-.731.394-.487.609-1.314.645-2.481v-.355c0-1.289-.201-2.213-.602-2.771-.393-.559-1.038-.838-1.933-.838-.731 0-1.3.311-1.708.934-.401.616-.602 1.515-.602 2.697 0 1.181.204 2.07.613 2.664.408.587.991.88 1.751.88ZM45.405 156.352h-1.636V159h-1.9v-2.648h-5.545v-1.502l5.545-8.019h1.9v7.902h1.636v1.619Zm-3.536-1.619v-3.046c0-1.085.027-1.973.083-2.665h-.067c-.155.366-.398.808-.73 1.329l-3.013 4.382h3.727ZM47.837 159l4.798-10.401h-6.309v-1.718h8.392v1.361L49.945 159h-2.108Zm12.451-7.579c1.223 0 2.192.324 2.905.972.714.647 1.071 1.53 1.071 2.648 0 1.294-.407 2.307-1.22 3.038-.808.725-1.959 1.087-3.453 1.087-1.356 0-2.421-.219-3.196-.656v-1.768c.448.255.963.451 1.544.59a7.03 7.03 0 0 0 1.619.207c.88 0 1.55-.196 2.008-.589.46-.393.69-.969.69-1.727 0-1.45-.925-2.175-2.773-2.175-.26 0-.581.028-.963.083-.382.05-.717.108-1.004.175l-.872-.515.465-5.927h6.308v1.735h-4.59l-.274 3.005c.194-.033.43-.072.706-.116a6.803 6.803 0 0 1 1.03-.067Zm14.252 4.931h-1.635V159h-1.9v-2.648H65.46v-1.502l5.544-8.019h1.901v7.902h1.635v1.619Zm-3.536-1.619v-3.046c0-1.085.028-1.973.083-2.665h-.066c-.155.366-.398.808-.73 1.329l-3.014 4.382h3.727Zm112.513-5.08c0 .77-.225 1.411-.673 1.926-.448.509-1.079.852-1.892 1.029v.067c.974.122 1.704.426 2.191.913.487.481.731 1.123.731 1.926 0 1.167-.413 2.069-1.237 2.706-.825.631-1.998.946-3.52.946-1.345 0-2.479-.219-3.403-.656v-1.735c.515.255 1.06.451 1.635.59a7.12 7.12 0 0 0 1.66.207c.941 0 1.644-.174 2.109-.523.465-.348.697-.888.697-1.618 0-.648-.257-1.124-.772-1.428-.515-.304-1.323-.457-2.424-.457h-1.054v-1.585h1.071c1.937 0 2.905-.67 2.905-2.009 0-.52-.169-.921-.506-1.203-.338-.283-.836-.424-1.494-.424-.46 0-.902.067-1.329.199-.426.128-.929.379-1.51.756l-.955-1.362c1.112-.819 2.405-1.228 3.877-1.228 1.223 0 2.177.263 2.863.789.687.525 1.03 1.25 1.03 2.174ZM193.685 159h-8.226v-1.478l3.129-3.146c.925-.946 1.536-1.615 1.835-2.008.304-.399.526-.772.664-1.121s.207-.722.207-1.121c0-.547-.166-.979-.498-1.294-.326-.316-.78-.474-1.361-.474-.465 0-.916.086-1.353.258-.432.171-.932.481-1.502.929l-1.055-1.286c.676-.57 1.331-.974 1.968-1.212a5.754 5.754 0 0 1 2.033-.357c1.129 0 2.034.296 2.715.888.68.587 1.021 1.378 1.021 2.374 0 .548-.1 1.068-.299 1.561-.194.492-.495 1.001-.905 1.527-.404.52-1.079 1.226-2.025 2.117l-2.109 2.042v.083h5.761V159Zm10.144-2.648h-1.636V159h-1.901v-2.648h-5.544v-1.502l5.544-8.019h1.901v7.902h1.636v1.619Zm-3.537-1.619v-3.046c0-1.085.028-1.973.083-2.665h-.066c-.155.366-.398.808-.73 1.329l-3.014 4.382h3.727Zm12.36-5.08c0 .77-.224 1.411-.672 1.926-.448.509-1.079.852-1.893 1.029v.067c.974.122 1.705.426 2.192.913.487.481.73 1.123.73 1.926 0 1.167-.412 2.069-1.237 2.706-.824.631-1.997.946-3.519.946-1.345 0-2.479-.219-3.403-.656v-1.735a7.761 7.761 0 0 0 1.635.59 7.113 7.113 0 0 0 1.66.207c.941 0 1.644-.174 2.108-.523.465-.348.698-.888.698-1.618 0-.648-.258-1.124-.772-1.428-.515-.304-1.323-.457-2.424-.457h-1.054v-1.585h1.07c1.937 0 2.906-.67 2.906-2.009 0-.52-.169-.921-.507-1.203-.337-.283-.835-.424-1.494-.424-.459 0-.902.067-1.328.199-.426.128-.93.379-1.511.756l-.954-1.362c1.112-.819 2.404-1.228 3.876-1.228 1.223 0 2.178.263 2.864.789.686.525 1.029 1.25 1.029 2.174ZM44.088 202h-3.32v-9.088l.033-1.493.053-1.633c-.55.552-.934.913-1.149 1.085l-1.805 1.45-1.6-1.998 5.06-4.028h2.728V202Zm15.694-3.255h-1.89V202h-3.245v-3.255h-6.703v-2.309l6.886-10.141h3.062v9.872h1.89v2.578Zm-5.134-2.578v-2.664c0-.444.017-1.089.053-1.934s.065-1.335.086-1.471h-.086c-.265.587-.584 1.16-.956 1.718l-2.879 4.351h3.782Zm11.784-10.076c1.504 0 2.714.344 3.63 1.031.924.68 1.386 1.601 1.386 2.761 0 .802-.222 1.518-.666 2.148-.444.623-1.16 1.182-2.148 1.676 1.174.63 2.016 1.289 2.524 1.977.516.68.774 1.428.774 2.245 0 1.289-.505 2.327-1.515 3.115-1.01.781-2.338 1.171-3.985 1.171-1.72 0-3.069-.365-4.05-1.096-.981-.73-1.472-1.765-1.472-3.104 0-.896.237-1.69.71-2.385.479-.695 1.245-1.307 2.298-1.837-.895-.566-1.54-1.171-1.934-1.815a3.984 3.984 0 0 1-.59-2.117c0-1.124.465-2.034 1.396-2.728.931-.695 2.145-1.042 3.642-1.042Zm-2.45 11.73c0 .616.215 1.096.645 1.44.43.343 1.017.515 1.762.515.823 0 1.44-.175 1.847-.526.408-.358.613-.827.613-1.407 0-.48-.205-.928-.613-1.343-.4-.423-1.056-.87-1.966-1.343-1.525.702-2.288 1.59-2.288 2.664Zm2.428-9.302c-.566 0-1.024.146-1.375.44-.344.286-.516.673-.516 1.16 0 .43.137.817.409 1.16.279.337.78.684 1.504 1.042.701-.329 1.192-.666 1.471-1.009.28-.344.42-.742.42-1.193 0-.494-.18-.884-.538-1.171-.358-.286-.816-.429-1.375-.429Zm26.77-2.224v10.162c0 1.16-.262 2.177-.785 3.051-.515.874-1.263 1.543-2.245 2.009-.98.465-2.14.698-3.48.698-2.02 0-3.588-.516-4.705-1.547-1.117-1.038-1.676-2.456-1.676-4.254v-10.119h3.32v9.614c0 1.21.243 2.098.73 2.664.487.566 1.293.849 2.417.849 1.088 0 1.876-.283 2.363-.849.494-.573.741-1.468.741-2.685v-9.593h3.32Zm13.116 11.344c0 1.418-.512 2.535-1.536 3.351-1.017.817-2.435 1.225-4.254 1.225-1.676 0-3.158-.315-4.447-.945v-3.094c1.06.472 1.955.805 2.685.999.738.193 1.411.29 2.02.29.73 0 1.289-.14 1.675-.419.394-.279.591-.695.591-1.246 0-.308-.086-.58-.258-.817-.171-.243-.426-.476-.762-.698-.33-.222-1.006-.576-2.03-1.063-.96-.451-1.68-.885-2.16-1.3a4.88 4.88 0 0 1-1.15-1.45c-.286-.552-.429-1.196-.429-1.934 0-1.389.47-2.481 1.407-3.276.946-.795 2.25-1.193 3.911-1.193.816 0 1.593.097 2.331.29.744.194 1.521.466 2.331.817l-1.075 2.589c-.837-.344-1.532-.584-2.084-.72a6.624 6.624 0 0 0-1.611-.204c-.63 0-1.113.147-1.45.44-.337.294-.505.677-.505 1.15 0 .293.068.551.204.773.136.215.351.426.645.634.301.2 1.006.566 2.116 1.096 1.468.701 2.474 1.407 3.018 2.116.545.702.817 1.565.817 2.589Zm15.877-3.642c0 2.585-.738 4.565-2.213 5.941-1.468 1.374-3.592 2.062-6.37 2.062h-4.447v-15.705h4.93c2.564 0 4.555.677 5.973 2.03 1.418 1.354 2.127 3.244 2.127 5.672Zm-3.459.086c0-3.373-1.49-5.06-4.469-5.06h-1.772v10.227h1.428c3.209 0 4.813-1.722 4.813-5.167Z"/>
  <rect width="5" height="5" x="85" y="150" fill="#fff" rx="2.5"/>
  <rect width="5" height="5" x="95" y="150" fill="#fff" rx="2.5"/>
  <rect width="5" height="5" x="105" y="150" fill="#fff" rx="2.5"/>
  <rect width="5" height="5" x="115" y="150" fill="#fff" rx="2.5"/>
  <rect width="5" height="5" x="130" y="150" fill="#fff" rx="2.5"/>
  <rect width="5" height="5" x="140" y="150" fill="#fff" rx="2.5"/>
  <rect width="5" height="5" x="150" y="150" fill="#fff" rx="2.5"/>
  <rect width="5" height="5" x="160" y="150" fill="#fff" rx="2.5"/>
  <defs>
    <linearGradient id="a" x1="338.539" x2="265.711" y1="25.136" y2="93.599" gradientUnits="userSpaceOnUse">
      <stop stop-color="#fff" stop-opacity="0"/>
      <stop offset="1" stop-color="#fff" stop-opacity=".7"/>
    </linearGradient>
    <linearGradient id="b" x1="302.944" x2="252.329" y1="55.709" y2="103.291" gradientUnits="userSpaceOnUse">
      <stop stop-color="#fff" stop-opacity="0"/>
      <stop offset="1" stop-color="#fff" stop-opacity=".7"/>
    </linearGradient>
    <linearGradient id="c" x1="6.314" x2="65.783" y1="219.328" y2="187.337" gradientUnits="userSpaceOnUse">
      <stop stop-color="#fff" stop-opacity="0"/>
      <stop offset="1" stop-color="#fff" stop-opacity=".7"/>
    </linearGradient>
  </defs>
</svg>
