<svg xmlns="http://www.w3.org/2000/svg" width="24" height="24" fill="none" viewBox="0 0 24 24">
  <path fill="#006466" d="M10.73.948a.966.966 0 0 0 1.365 0 1.641 1.641 0 0 1 2.321 0 .966.966 0 0 0 1.366 0l.006-.006c.281-.282.749.012.618.388L15.36 4.34h-4.198L10.11 1.336c-.132-.376.336-.67.618-.388Z"/>
  <path fill="#FFAF7A" d="M18.734 7.786 15.287 4.34h-4.052L7.79 7.786a7.74 7.74 0 1 0 10.945 0Z"/>
  <path fill="#006466" d="M4.594 23.532h9.105a6.945 6.945 0 0 0 4.84-1.965l4.59-4.461a1.324 1.324 0 0 0-1.802-1.94l-4.599 4.085a4.233 4.233 0 0 1-2.81 1.068l-4.8-1.461 4.397 1.398a1.331 1.331 0 0 0 .978-2.47l-3.309-1.585a5.513 5.513 0 0 0-4.282-.203l-2.299.844-.01 6.69Z"/>
  <path fill="#FFAF7A" d="M3.719 16.219H1.344a.875.875 0 0 0-.875.875v5.563c0 .483.391.875.875.875h2.375a.875.875 0 0 0 .875-.875v-5.563a.875.875 0 0 0-.875-.875Z"/>
  <path fill="#000" d="M13.261 10.167c.34 0 .618.232.618.517a.469.469 0 0 0 .937 0c0-.649-.457-1.2-1.086-1.386v-.066a.469.469 0 0 0-.938 0v.066c-.628.186-1.085.737-1.085 1.386 0 .802.697 1.455 1.554 1.455.34 0 .618.232.618.517 0 .285-.277.516-.618.516-.34 0-.617-.231-.617-.516a.469.469 0 0 0-.938 0c0 .649.458 1.2 1.087 1.386v.066a.469.469 0 0 0 .937 0v-.066c.629-.186 1.086-.737 1.086-1.386 0-.802-.697-1.455-1.555-1.455-.34 0-.617-.232-.617-.517 0-.285.277-.517.617-.517Z"/>
  <path fill="#000" d="M23.93 15.659a1.79 1.79 0 0 0-2.567-1.085 8.26 8.26 0 0 0-.338-3.984.469.469 0 0 0-.887.304 7.318 7.318 0 0 1 .015 4.688L16.417 18.9c-.23.204-.483.378-.752.519a1.802 1.802 0 0 0-.97-2.056l-3.308-1.585a6.016 6.016 0 0 0-4.646-.22l-.337.123A7.24 7.24 0 0 1 8.12 8.119l3.31-3.31h3.663l2.804 2.805a.469.469 0 0 0 .663-.663l-2.68-2.68.97-2.787a.84.84 0 0 0-.35-.991.84.84 0 0 0-1.044.118l-.005.006a.498.498 0 0 1-.703 0 2.112 2.112 0 0 0-2.984 0 .494.494 0 0 1-.703 0 .84.84 0 0 0-1.045-.118.84.84 0 0 0-.348.993l.973 2.78-3.184 3.184a8.163 8.163 0 0 0-2.265 4.297 8.202 8.202 0 0 0 .331 4.252l-.739.27a1.342 1.342 0 0 0-1.065-.525H1.344C.603 15.75 0 16.352 0 17.093v5.563C0 23.397.603 24 1.344 24h12.355c1.94 0 3.776-.745 5.167-2.098l4.59-4.46a1.79 1.79 0 0 0 .474-1.783ZM11.412 1.7c.383 0 .744-.15 1.015-.42a1.174 1.174 0 0 1 1.658 0c.27.27.631.42 1.014.42.272 0 .533-.075.758-.216l-.83 2.388h-3.532l-.835-2.384c.224.138.482.212.752.212ZM.938 22.656v-5.563c0-.224.182-.406.406-.406h2.375c.224 0 .406.182.406.406v5.563a.407.407 0 0 1-.406.406H1.344a.407.407 0 0 1-.406-.406Zm21.865-5.887-4.59 4.461a6.443 6.443 0 0 1-4.514 1.832h-8.7c.042-.128.064-.264.064-.406v-5.483l2-.735a5.073 5.073 0 0 1 3.919.186l3.309 1.585a.852.852 0 0 1 .455.533.861.861 0 0 1-1.089 1.066L9.26 18.412a.469.469 0 0 0-.284.893l4.397 1.398c.18.058.365.085.547.085.022 0 .044 0 .066-.002a4.695 4.695 0 0 0 3.054-1.184l4.599-4.085a.86.86 0 0 1 .746-.197.843.843 0 0 1 .644.6.843.843 0 0 1-.226.85Z"/>
  <path fill="#000" d="M19.629 9.328a.47.47 0 0 0 .331-.8.472.472 0 0 0-.662 0 .471.471 0 0 0 .331.8Z"/>
  <path fill="#006466" d="M10.73.948a.966.966 0 0 0 1.365 0 1.641 1.641 0 0 1 2.321 0 .966.966 0 0 0 1.366 0l.006-.006c.281-.282.749.012.618.388L15.36 4.34h-4.198L10.11 1.336c-.132-.376.336-.67.618-.388Z"/>
  <path fill="#FFAF7A" d="M18.734 7.786 15.287 4.34h-4.052L7.79 7.786a7.74 7.74 0 1 0 10.945 0Z"/>
  <path fill="#006466" d="M4.594 23.532h9.105a6.945 6.945 0 0 0 4.84-1.965l4.59-4.461a1.324 1.324 0 0 0-1.802-1.94l-4.599 4.085a4.233 4.233 0 0 1-2.81 1.068l-4.8-1.461 4.397 1.398a1.331 1.331 0 0 0 .978-2.47l-3.309-1.585a5.513 5.513 0 0 0-4.282-.203l-2.299.844-.01 6.69Z"/>
  <path fill="#FFAF7A" d="M3.719 16.219H1.344a.875.875 0 0 0-.875.875v5.563c0 .483.391.875.875.875h2.375a.875.875 0 0 0 .875-.875v-5.563a.875.875 0 0 0-.875-.875Z"/>
  <path fill="#000" d="M13.261 10.167c.34 0 .618.232.618.517a.469.469 0 0 0 .937 0c0-.649-.457-1.2-1.086-1.386v-.066a.469.469 0 0 0-.938 0v.066c-.628.186-1.085.737-1.085 1.386 0 .802.697 1.455 1.554 1.455.34 0 .618.232.618.517 0 .285-.277.516-.618.516-.34 0-.617-.231-.617-.516a.469.469 0 0 0-.938 0c0 .649.458 1.2 1.087 1.386v.066a.469.469 0 0 0 .937 0v-.066c.629-.186 1.086-.737 1.086-1.386 0-.802-.697-1.455-1.555-1.455-.34 0-.617-.232-.617-.517 0-.285.277-.517.617-.517Z"/>
  <path fill="#000" d="M23.93 15.659a1.79 1.79 0 0 0-2.567-1.085 8.26 8.26 0 0 0-.338-3.984.469.469 0 0 0-.887.304 7.318 7.318 0 0 1 .015 4.688L16.417 18.9c-.23.204-.483.378-.752.519a1.802 1.802 0 0 0-.97-2.056l-3.308-1.585a6.016 6.016 0 0 0-4.646-.22l-.337.123A7.24 7.24 0 0 1 8.12 8.119l3.31-3.31h3.663l2.804 2.805a.469.469 0 0 0 .663-.663l-2.68-2.68.97-2.787a.84.84 0 0 0-.35-.991.84.84 0 0 0-1.044.118l-.005.006a.498.498 0 0 1-.703 0 2.112 2.112 0 0 0-2.984 0 .494.494 0 0 1-.703 0 .84.84 0 0 0-1.045-.118.84.84 0 0 0-.348.993l.973 2.78-3.184 3.184a8.163 8.163 0 0 0-2.265 4.297 8.202 8.202 0 0 0 .331 4.252l-.739.27a1.342 1.342 0 0 0-1.065-.525H1.344C.603 15.75 0 16.352 0 17.093v5.563C0 23.397.603 24 1.344 24h12.355c1.94 0 3.776-.745 5.167-2.098l4.59-4.46a1.79 1.79 0 0 0 .474-1.783ZM11.412 1.7c.383 0 .744-.15 1.015-.42a1.174 1.174 0 0 1 1.658 0c.27.27.631.42 1.014.42.272 0 .533-.075.758-.216l-.83 2.388h-3.532l-.835-2.384c.224.138.482.212.752.212ZM.938 22.656v-5.563c0-.224.182-.406.406-.406h2.375c.224 0 .406.182.406.406v5.563a.407.407 0 0 1-.406.406H1.344a.407.407 0 0 1-.406-.406Zm21.865-5.887-4.59 4.461a6.443 6.443 0 0 1-4.514 1.832h-8.7c.042-.128.064-.264.064-.406v-5.483l2-.735a5.073 5.073 0 0 1 3.919.186l3.309 1.585a.852.852 0 0 1 .455.533.861.861 0 0 1-1.089 1.066L9.26 18.412a.469.469 0 0 0-.284.893l4.397 1.398c.18.058.365.085.547.085.022 0 .044 0 .066-.002a4.695 4.695 0 0 0 3.054-1.184l4.599-4.085a.86.86 0 0 1 .746-.197.843.843 0 0 1 .644.6.843.843 0 0 1-.226.85Z"/>
  <path fill="#000" d="M19.629 9.328a.47.47 0 0 0 .331-.8.472.472 0 0 0-.662 0 .471.471 0 0 0 .331.8Z"/>
</svg>
