<svg xmlns="http://www.w3.org/2000/svg" width="24" height="24" fill="none" viewBox="0 0 24 24">
  <path stroke="#828282" stroke-linecap="round" stroke-linejoin="round" stroke-width="1.5" d="M17.857 20.417a3.393 3.393 0 0 0 3.393-3.391v-2.702a2.24 2.24 0 0 1 0-4.478h0v-2.7a3.392 3.392 0 0 0-3.388-3.396H6.144A3.394 3.394 0 0 0 2.75 7.142v2.791a2.163 2.163 0 0 1 2.237 2.086l.002.066a2.237 2.237 0 0 1-2.233 2.239H2.75v2.7a3.392 3.392 0 0 0 3.391 3.393h11.716Z" clip-rule="evenodd"/>
  <path stroke="#828282" stroke-linecap="round" stroke-linejoin="round" stroke-width="1.5" d="m12.371 9.063.616 1.247c.06.122.176.207.311.227l1.377.201c.341.05.476.468.23.707l-.996.97a.417.417 0 0 0-.12.367l.235 1.37a.414.414 0 0 1-.6.437l-1.232-.647a.412.412 0 0 0-.386 0l-1.23.647a.415.415 0 0 1-.602-.437l.235-1.37a.414.414 0 0 0-.12-.367l-.995-.97a.414.414 0 0 1 .23-.707l1.376-.201a.416.416 0 0 0 .312-.227l.615-1.247a.415.415 0 0 1 .744 0Z" clip-rule="evenodd"/>
</svg>
