<svg xmlns="http://www.w3.org/2000/svg" width="24" height="24" fill="none" viewBox="0 0 24 24">
  <path stroke="#130F26" stroke-linecap="round" stroke-linejoin="round" stroke-width="1.5" d="M19.325 9.467s-.543 6.735-.858 9.572c-.15 1.355-.987 2.149-2.358 2.174-2.61.047-5.221.05-7.83-.005-1.318-.027-2.141-.831-2.288-2.162-.317-2.862-.857-9.58-.857-9.58m15.574-3.228H3.75m13.69.001a1.648 1.648 0 0 1-1.614-1.324l-.243-1.216a1.28 1.28 0 0 0-1.237-.949h-4.233a1.28 1.28 0 0 0-1.237.949l-.243 1.216a1.648 1.648 0 0 1-1.615 1.324"/>
</svg>
