<svg xmlns="http://www.w3.org/2000/svg" width="13" height="13" fill="none" viewBox="0 0 13 13">
  <path fill="#fff" d="M12.404 2.372 10.626.595a.57.57 0 0 0-.807 0l-1.607 1.61-6.214 6.213a.574.574 0 0 0-.122.179l-1.33 3.107a.569.569 0 0 0 .524.795.596.596 0 0 0 .226-.045l3.107-1.33a.573.573 0 0 0 .179-.122l6.213-6.214 1.61-1.607a.573.573 0 0 0 0-.81ZM2.156 10.844l.52-1.21.69.69-1.21.52Zm1.887-.917-.97-.97L8.67 3.359l.97.97-5.597 5.598Zm6.135-6.136-.97-.97 1.014-1.014.97.968-1.014 1.016Z"/>
</svg>
