<svg xmlns="http://www.w3.org/2000/svg" width="288" height="287" fill="none" viewBox="0 0 288 287">
  <mask id="a" fill="#fff">
    <path d="M288 143.5c0 79.253-64.471 143.5-144 143.5S0 222.753 0 143.5 64.471 0 144 0s144 64.247 144 143.5Zm-243.09 0c0 54.536 44.365 98.745 99.09 98.745 54.726 0 99.089-44.209 99.089-98.745 0-54.535-44.363-98.745-99.089-98.745-54.725 0-99.09 44.21-99.09 98.745Z"/>
  </mask>
  <path fill="#38972E" fill-opacity=".02" stroke="#38972E" stroke-dasharray="2 2" stroke-opacity=".2" stroke-width="2" d="M288 143.5c0 79.253-64.471 143.5-144 143.5S0 222.753 0 143.5 64.471 0 144 0s144 64.247 144 143.5Zm-243.09 0c0 54.536 44.365 98.745 99.09 98.745 54.726 0 99.089-44.209 99.089-98.745 0-54.535-44.363-98.745-99.089-98.745-54.725 0-99.09 44.21-99.09 98.745Z" mask="url(#a)"/>
</svg>
