<svg xmlns="http://www.w3.org/2000/svg" width="22" height="22" fill="none" viewBox="0 0 22 22">
  <rect width="22" height="22" fill="#006466" rx="11"/>
  <path fill="#130F26" fill-rule="evenodd" d="M13.246 5.46c.368 0 .735.051 1.085.168 2.153.7 2.929 3.063 2.28 5.128a7.424 7.424 0 0 1-1.755 2.805 22.433 22.433 0 0 1-3.693 2.893l-.146.088-.151-.094a22.222 22.222 0 0 1-3.716-2.893 7.545 7.545 0 0 1-1.756-2.8c-.66-2.064.117-4.427 2.293-5.139.17-.058.344-.1.519-.122h.07c.164-.024.326-.035.49-.035h.064c.367.011.723.075 1.068.193h.034a.18.18 0 0 1 .053.034c.129.041.25.088.367.152l.222.1c.054.028.114.072.166.11.033.023.062.045.085.059l.029.017c.05.029.102.06.146.093a3.653 3.653 0 0 1 2.246-.758Zm1.551 4.2a.48.48 0 0 0 .461-.445v-.07a1.925 1.925 0 0 0-1.23-1.843.467.467 0 0 0-.59.292.477.477 0 0 0 .292.6c.374.14.624.508.624.916v.018a.502.502 0 0 0 .11.362c.082.1.205.157.333.17Z" clip-rule="evenodd"/>
</svg>
