<svg xmlns="http://www.w3.org/2000/svg" width="20" height="20" fill="none" viewBox="0 0 20 20">
  <path fill="#FBBB00" d="m4.432 12.085-.696 2.6-2.544.053A9.955 9.955 0 0 1 0 10a9.95 9.95 0 0 1 1.118-4.6l2.266.416.992 2.251A5.944 5.944 0 0 0 4.056 10c0 .734.132 1.438.376 2.086Z"/>
  <path fill="#518EF8" d="M19.825 8.13a10.018 10.018 0 0 1-.044 3.956 9.997 9.997 0 0 1-3.52 5.711h-.001l-2.853-.146-.404-2.52a5.96 5.96 0 0 0 2.564-3.044H10.22V8.13h9.605Z"/>
  <path fill="#28B446" d="M16.26 17.797v.001A9.958 9.958 0 0 1 10 20a9.998 9.998 0 0 1-8.808-5.261l3.24-2.653a5.946 5.946 0 0 0 8.57 3.045l3.258 2.666Z"/>
  <path fill="#F14336" d="m16.383 2.302-3.24 2.652a5.948 5.948 0 0 0-8.767 3.114L1.12 5.401A9.998 9.998 0 0 1 10 0c2.426 0 4.651.864 6.383 2.302Z"/>
</svg>
