<svg xmlns="http://www.w3.org/2000/svg" width="18" height="20" fill="none" viewBox="0 0 18 20">
  <path fill="#006466" fill-rule="evenodd" d="M9.01 1.5h-.017c-2.125 0-3.856 1.694-3.866 3.784v1.343h7.745V5.301c0-2.096-1.732-3.801-3.862-3.801Zm5.387 3.801v1.597c1.8.621 3.103 2.29 3.103 4.271v4.289c0 2.505-2.071 4.542-4.617 4.542h-3.44a.756.756 0 0 1-.763-.75c0-.414.341-.75.762-.75h3.411c1.706 0 3.092-1.364 3.092-3.042 0-.037.01-.07.019-.103a.773.773 0 0 0 .011-.042v-4.144c0-1.678-1.387-3.042-3.092-3.042H5.117c-1.705 0-3.092 1.364-3.092 3.042v4.144l.011.045c.01.032.018.065.018.1 0 1.678 1.387 3.042 3.093 3.042.42 0 .762.336.762.75s-.341.75-.762.75l-.01-.001-.01-.001-.005.001-.005.001C2.571 20 .5 17.963.5 15.458v-4.289c0-1.981 1.302-3.65 3.102-4.271V5.301C3.615 2.363 6.03 0 8.99 0h.023c2.967 0 5.384 2.378 5.384 5.301Zm-4.635 6.902v2.22c0 .415-.341.75-.762.75a.756.756 0 0 1-.762-.75v-2.22c0-.414.341-.75.762-.75.42 0 .762.336.762.75Z" clip-rule="evenodd"/>
</svg>
