<?xml version="1.0" encoding="utf-8"?>
<!-- Generator: Adobe Illustrator 23.0.5, SVG Export Plug-In . SVG Version: 6.00 Build 0)  -->
<svg version="1.1" xmlns="http://www.w3.org/2000/svg" xmlns:xlink="http://www.w3.org/1999/xlink" x="0px" y="0px"
	 viewBox="0 0 244 260.3" style="enable-background:new 0 0 244 260.3;" xml:space="preserve">
<style type="text/css">
	.st0{display:none;}
	.st1{fill:#066466;}
	.st2{fill:#333333;}
</style>
<g id="Calque_1" class="st0">
	
		<image style="display:inline;overflow:visible;" width="371" height="290" xlink:href="../../Downloads/image 28.png"  transform="matrix(1.4322 0 0 1.4322 -115.2344 69.3412)">
	</image>
</g>
<g id="Calque_2">
	<g>
		<path class="st1" d="M236,143.5c0,0-41.4-29.6-94.5-39.1c-0.7-0.1-1.3-0.8-1.2-1.5c0.3-6.1,0.1-30.7-15.1-43.5
			c-0.2-0.2-0.4-0.3-0.6-0.5c-2.5-2.4-18.8-18.8-19.5-25.4c0,0-4.1-10.8,6.1-14.4c0,0,3.1-0.8,6.4-0.1c6.3,1.4,8.3,9.6,3.1,13.4
			c0,0-0.1,0.1-0.1,0.1c-1.3,1-2.4,2.3-2.7,3.9c-0.3,1.3-0.2,3,0.8,4.9c1.3,2.5,3.4,4.4,6,5.5c3.3,1.3,8.4,1.7,12.6-5.5
			c5.4-9.2,5.4-20.7-0.3-29.7c-3-4.8-7.9-9.3-15.8-11C106.5-2.6,91.8,6.5,87.5,21c-2.3,8-2.3,17.9,4.6,28.7c0,0,0.3,0.5,0.8,1.4
			c4.1,6.4,9,12.3,14.6,17.4c3.8,3.4,8.9,8.3,10.9,11.5c0,0,6.1,7.1,3.5,20.3c-0.1,0.3-0.4,0.6-0.8,0.6c-5.8-0.6-49.9-4.7-74,6.6
			c-0.8,0.4-1.5,0.7-2.3,1.1c-4.8,2.1-26.9,12.5-39.5,29.7c-0.2,0.2-0.3,0.4-0.4,0.6c-14.2,19.8,6.4,28.1,6.4,28.1s14,6.1,59.5-6.3
			c2.8-0.8,5.6-1.7,8.3-2.8c8.7-3.4,22.5-9,35.1-18.9c1.4-1.1,2.6-2.2,3.9-3.4c3.6-3.5,11.4-11.1,13.9-14c0.3-0.4,0.9-0.6,1.4-0.5
			c3.2,0.4,15.2,2.3,33.3,8.5c16.6,5.7,32.5,13.2,47.6,22.2c6.1,3.7,12.8,7.7,15.9,9.8c0,0,8.1,5,11.9-1.8
			C242.1,159.6,249.3,151.8,236,143.5z M21.8,148.5c25.4-39.4,87.1-30.7,87.1-30.7C74.8,153.1,21.8,148.5,21.8,148.5z"/>
		<g>
			<path class="st2" d="M51.4,242.5c0,3.6-1,6.9-3.1,9.7c-2,2.8-5,5-8.8,6.6c-3.8,1.6-8.3,2.3-13.5,2.3c-4.3,0-7.9-0.3-10.8-0.8
				c-2.9-0.5-6-1.5-9.1-2.9v-14.1c3.3,1.5,6.8,2.8,10.4,3.6c3.6,0.9,6.9,1.3,9.9,1.3c2.6,0,4.5-0.4,5.7-1.2c1.2-0.8,1.8-1.9,1.8-3.1
				c0-0.8-0.2-1.5-0.7-2.1s-1.3-1.2-2.3-1.8c-1.1-0.6-3.9-1.9-8.6-3.8c-4.2-1.7-7.4-3.4-9.5-5.1c-2.1-1.6-3.7-3.5-4.7-5.6
				s-1.5-4.6-1.5-7.5c0-5.4,2.2-9.6,6.5-12.6c4.3-3,10.3-4.5,17.9-4.5c6.7,0,13.5,1.4,20.5,4.2L46,217.3c-6-2.5-11.3-3.8-15.7-3.8
				c-2.3,0-3.9,0.4-5,1.1c-1,0.7-1.5,1.6-1.5,2.7c0,1.1,0.7,2.2,2,3.1c1.3,0.9,4.9,2.6,10.7,5c5.6,2.3,9.4,4.7,11.6,7.3
				C50.3,235.2,51.4,238.5,51.4,242.5z"/>
			<path class="st2" d="M89.9,260.3H72.4v-45.7H56.7v-12.9h49v12.9H89.9V260.3z"/>
			<path class="st2" d="M114.9,260.3v-58.6h17.6v58.6H114.9z"/>
			<path class="st2" d="M146.5,260.3v-58.6h17.5v45.8h24.9v12.8H146.5z"/>
			<path class="st2" d="M237.6,260.3h-38.4v-58.6h38.4v12.7h-20.9v9.2h19.4v12.7h-19.4v11.1h20.9V260.3z"/>
		</g>
	</g>
</g>
</svg>
