<svg xmlns="http://www.w3.org/2000/svg" width="24" height="24" fill="none" viewBox="0 0 24 24">
  <g clip-path="url(#a)">
    <path fill="#E2574C" d="M14.995 12.5A7.498 7.498 0 1 1 0 12.5a7.499 7.499 0 1 1 14.995 0Z"/>
    <path fill="#F4B459" d="M16.502 5a7.45 7.45 0 0 0-4.48 1.496h.006c.246.238.517.405.726.679l-1.56.025a7.709 7.709 0 0 0-.677.794h2.751c.21.251.403.47.579.747h-3.829c-.14.242-.27.49-.383.748h4.647c.122.257.23.451.323.723H9.36a7.223 7.223 0 0 0-.208.794h5.673c.055.26.098.5.127.744H9.039a7.516 7.516 0 0 0-.038.75h5.994c0 .266-.02.511-.046.75h-5.91c.025.254.063.504.113.75h5.664a8.863 8.863 0 0 1-.211.741H9.343c.08.257.176.506.282.748h4.657c-.129.274-.275.492-.436.747h-3.84c.15.263.318.514.5.753l2.762.042c-.235.283-.537.453-.813.7.015.012-.44-.001-1.336-.016A7.472 7.472 0 0 0 16.502 20a7.5 7.5 0 1 0 0-15Z"/>
  </g>
  <defs>
    <clipPath id="a">
      <path fill="#fff" d="M0 0h24v24H0z"/>
    </clipPath>
  </defs>
</svg>
