<svg xmlns="http://www.w3.org/2000/svg" width="24" height="24" fill="none" viewBox="0 0 24 24">
  <path fill="#507BE9" d="M9.98 22H6.675a.586.586 0 0 1-.584-.636L7.502 5.232a.586.586 0 0 1 .583-.535h7.683c1.395 0 2.661.545 3.568 1.534.91.994 1.345 2.312 1.222 3.712-.12 1.377-.768 2.67-1.822 3.64-1.055.97-2.396 1.504-3.774 1.504h-3.84l-.558 6.38a.586.586 0 0 1-.583.534Z"/>
  <path fill="#3266C8" d="M15.768 4.697H11.79v10.39h3.173c1.378 0 2.719-.534 3.774-1.504 1.054-.97 1.701-2.263 1.822-3.64.122-1.4-.312-2.718-1.222-3.712-.906-.989-2.173-1.534-3.567-1.534Z"/>
  <path fill="#7DBEFF" d="M6.893 19.304H3.586a.586.586 0 0 1-.584-.637L4.414 2.535A.586.586 0 0 1 4.997 2h7.683c1.395 0 2.661.545 3.568 1.534.91.994 1.345 2.312 1.222 3.712-.12 1.377-.768 2.67-1.822 3.64-1.055.97-2.396 1.504-3.774 1.504h-3.84l-.558 6.379a.586.586 0 0 1-.583.535Z"/>
  <path fill="#6496F7" d="M12.68 2h-.89v10.39h.084c1.378 0 2.719-.534 3.774-1.505 1.054-.97 1.701-2.262 1.822-3.639.123-1.4-.312-2.718-1.222-3.712C15.34 2.544 14.074 2 12.68 2Z"/>
  <path fill="#6496F7" d="M8.085 4.695a.586.586 0 0 0-.583.535L6.27 19.303h.622a.586.586 0 0 0 .583-.535l.558-6.379h3.84c1.378 0 2.719-.534 3.774-1.505 1.054-.97 1.701-2.262 1.822-3.639a4.952 4.952 0 0 0-.36-2.372 5.07 5.07 0 0 0-1.341-.178H8.084Z"/>
  <path fill="#507BE9" d="M15.768 4.697H11.79v7.694h.085c1.378 0 2.719-.534 3.774-1.505 1.054-.97 1.701-2.262 1.822-3.639a4.95 4.95 0 0 0-.36-2.372 5.072 5.072 0 0 0-1.341-.178Z"/>
</svg>
