<svg xmlns="http://www.w3.org/2000/svg" width="14" height="14" fill="none" viewBox="0 0 14 14">
  <path fill="#F2C94C" d="M10.453 8.354a.642.642 0 0 0-.187.566l.519 2.87a.63.63 0 0 1-.262.63.642.642 0 0 1-.683.046L7.256 11.12a.66.66 0 0 0-.291-.076h-.158a.47.47 0 0 0-.158.052L4.065 12.45a.682.682 0 0 1-.414.064.648.648 0 0 1-.52-.741l.52-2.87a.653.653 0 0 0-.186-.571L1.358 6.289a.63.63 0 0 1-.157-.66.655.655 0 0 1 .519-.437l2.9-.42a.649.649 0 0 0 .513-.356L6.41 1.797a.607.607 0 0 1 .117-.157l.052-.041a.392.392 0 0 1 .094-.076l.064-.023.099-.041h.245c.22.023.413.154.514.35l1.294 2.607a.65.65 0 0 0 .484.356l2.9.42c.245.035.45.204.53.438.077.234.01.49-.169.659l-2.181 2.065Z"/>
</svg>
