<svg xmlns="http://www.w3.org/2000/svg" width="20" height="20" fill="none" viewBox="0 0 20 20">
  <path fill="#000" d="M17.765 19.358H2.235c-1.099 0-1.805-.339-2.1-1.007-.43-.974.297-2.067.382-2.188a.732.732 0 0 1 .076-.092l6.946-7.026c.26-.26.662-.24.898.049a.766.766 0 0 1-.044 1l-6.898 6.977c-.154.247-.255.574-.219.656.001.002.148.216.96.216h15.53c.812 0 .959-.214.96-.216.036-.081-.065-.407-.22-.656l-7.768-7.836c-.43-.462-.482-.91-.454-1.205.061-.657.55-1.031.647-1.1a.584.584 0 0 1 .115-.063c.872-.364 1.458-1.307 1.458-2.347 0-1.385-1.012-2.512-2.255-2.512-1.244 0-2.256 1.127-2.256 2.512 0 .391-.285.708-.636.708-.35 0-.636-.317-.636-.708 0-2.166 1.583-3.928 3.528-3.928s3.526 1.762 3.526 3.928c0 1.59-.877 3.036-2.192 3.633l-.01.01.034.039 7.8 7.869a.681.681 0 0 1 .076.09c.084.123.811 1.216.383 2.19-.296.668-1.002 1.008-2.101 1.008Z"/>
</svg>
