<?xml version="1.0" standalone="no"?>
<!DOCTYPE svg PUBLIC "-//W3C//DTD SVG 20010904//EN"
 "http://www.w3.org/TR/2001/REC-SVG-20010904/DTD/svg10.dtd">
<svg version="1.0" xmlns="http://www.w3.org/2000/svg"
 width="1280.000000pt" height="871.000000pt" viewBox="0 0 1280.000000 871.000000"
 preserveAspectRatio="xMidYMid meet">
<metadata>
Created by potrace 1.15, written by Peter Selinger 2001-2017
</metadata>
<g transform="translate(0.000000,871.000000) scale(0.100000,-0.100000)"
fill="#000000" stroke="none">
<path d="M4173 8124 c-776 -84 -1445 -403 -1983 -943 -417 -419 -710 -936
-854 -1506 -28 -115 -49 -221 -73 -385 -21 -146 -24 -617 -5 -760 85 -627 264
-1093 600 -1569 237 -335 590 -661 960 -886 34 -21 62 -41 62 -46 0 -8 -171
-100 -705 -379 -300 -157 -460 -251 -1123 -659 -426 -261 -770 -477 -765 -478
5 -2 44 12 86 31 324 148 1370 595 1379 590 7 -4 8 -3 4 4 -5 8 1 11 16 10 47
-3 300 118 878 422 303 160 384 195 493 214 203 35 179 36 327 -12 251 -80
489 -130 733 -153 167 -15 583 -7 732 15 422 63 771 177 1120 367 641 348
1140 896 1440 1579 47 106 154 416 156 448 0 10 3 12 6 5 3 -8 24 14 50 50 25
34 91 107 147 162 112 111 144 132 466 300 396 207 436 228 505 265 39 21 129
68 200 105 72 37 162 85 200 105 39 21 122 65 185 98 366 191 745 390 815 427
135 72 406 209 493 249 45 21 82 43 82 48 0 5 5 6 10 3 6 -3 10 -2 10 3 0 5
87 49 193 97 383 175 517 249 972 533 144 89 245 159 252 173 8 14 13 18 13 9
1 -30 20 13 20 45 0 23 -3 27 -10 15 -7 -11 -10 -8 -10 16 0 43 -30 77 -90
103 l-50 22 -148 -62 c-607 -254 -793 -350 -1327 -684 -224 -140 -428 -251
-1455 -790 -657 -345 -1248 -654 -1312 -686 l-117 -59 6 178 c12 364 -44 760
-159 1121 -341 1073 -1243 1910 -2338 2170 -353 84 -753 112 -1087 75z m7825
-1466 c24 -52 6 -69 -165 -158 -87 -46 -333 -175 -546 -287 -412 -217 -438
-229 -434 -211 4 21 -41 36 -86 27 -23 -4 -44 -6 -46 -3 -17 16 55 64 245 164
121 63 383 201 584 307 397 210 420 218 448 161z m-6614 -328 c121 -41 228
-126 290 -229 107 -177 105 -410 -4 -581 -43 -68 -140 -154 -211 -191 -174
-87 -382 -77 -544 26 -135 86 -217 215 -246 388 -46 276 170 566 456 611 61 9
201 -4 259 -24z m-1686 -236 c175 -50 308 -179 367 -353 35 -102 35 -239 1
-340 -132 -389 -620 -503 -906 -212 -100 102 -159 244 -160 382 0 76 33 199
72 268 65 114 192 215 323 256 60 19 235 18 303 -1z m1916 -1389 c173 -56 300
-183 355 -354 26 -81 29 -231 5 -312 -73 -250 -325 -422 -578 -395 -179 19
-345 129 -429 283 -35 66 -67 190 -67 262 2 238 175 462 406 526 85 23 220 19
308 -10z m-1705 -230 c194 -46 350 -195 405 -387 23 -79 21 -214 -4 -297 -69
-232 -283 -391 -526 -391 -289 0 -523 222 -542 514 -22 357 318 643 667 561z"/>
</g>
</svg>
