<svg width="38" height="38" viewBox="0 0 38 38" fill="none" xmlns="http://www.w3.org/2000/svg">
<path d="M22.5936 21.9415C21.0309 22.8748 19.7938 24.2204 19.0341 25.9567C19.0124 21.5509 19.0341 17.0799 19.0124 12.674C18.7737 12.6523 18.4699 12.674 18.2094 12.6523C18.1877 17.0799 18.2094 21.5509 18.1877 26.0001C17.0374 23.3957 14.867 21.6811 11.9153 20.7912C11.4378 20.6393 10.9387 20.5308 10.3527 20.4223C9.81006 20.3355 9.15895 20.2269 8.63806 20.3355V20.3572C8.8334 23.4825 9.81006 25.9133 11.3944 27.6713C12.9788 29.4293 15.236 30.6013 18.5567 30.6013H19.0559C22.0944 30.5145 24.1996 29.3859 25.7189 27.7581C27.2382 26.1304 28.1931 23.8515 28.5187 21.0517C28.5621 20.7261 28.5404 20.4657 28.5187 20.2921C26.153 20.3572 24.1562 20.9866 22.5936 21.9415ZM14.6066 28.9301C11.72 27.5845 10.0922 24.915 9.59303 21.1819C9.59303 21.1602 9.59303 21.1385 9.61473 21.1385C12.1107 21.4641 14.0857 22.3756 15.5833 23.6995C17.0808 25.0452 18.0358 26.9551 18.1443 29.6681C16.777 29.6464 15.605 29.3859 14.6066 28.9301ZM27.6071 21.3772C27.2816 23.743 26.3917 25.718 25.0895 27.1287C23.7222 28.6263 21.8122 29.603 19.121 29.6898C19.1427 28.3658 19.4031 27.1938 19.8589 26.1955C21.1611 23.3306 23.8741 21.6811 27.4986 21.1602C27.5203 21.1602 27.6288 21.1385 27.6288 21.1385C27.6288 21.1385 27.6071 21.3338 27.6071 21.3772Z" fill="white"/>
<path d="M17.0157 16.885V15.8215C16.1258 15.4309 15.4313 14.91 14.9321 14.1286C14.4546 13.369 14.1508 12.2621 14.3678 11.0684C14.5632 10.0266 15.0624 9.267 15.7569 8.65929C16.4297 8.07329 17.3195 7.63922 18.5132 7.63922C19.707 7.63922 20.6185 8.09499 21.2696 8.681C21.9424 9.2887 22.4416 10.0483 22.637 11.0901C22.854 12.2838 22.5501 13.3907 22.051 14.1286C21.5518 14.91 20.8138 15.4092 19.9674 15.8215V16.8633C21.1394 16.4943 22.051 15.8432 22.7238 14.91C23.3749 14.0201 23.8524 12.7179 23.6787 11.1986C23.5051 9.83129 22.9191 8.83292 22.0944 8.05159C21.3564 7.33536 20.1627 6.70596 18.7737 6.61914H18.2094C16.7987 6.72766 15.7135 7.24855 14.9104 8.05159C14.1074 8.85463 13.4997 9.78789 13.3261 11.1986C13.1307 12.7396 13.6299 14.0201 14.281 14.91C14.9321 15.8432 15.8654 16.4726 17.0157 16.885Z" fill="white"/>
</svg>
