<svg width="28" height="28" viewBox="0 -10 28 28" fill="none" xmlns="http://www.w3.org/2000/svg">
<path d="M0.742195 3.04398L6.12959 0.381787C6.21827 0.336279 6.30695 0.336279 6.39563 0.381787C6.573 0.472802 6.63951 0.677586 6.70602 0.950632C6.72819 1.0644 6.77253 1.22368 6.81687 1.29194C13.8892 3.7721 20.1191 1.70151 21.0946 1.3602C21.1611 1.0644 21.3163 0.563817 21.5601 0.427294C21.671 0.359032 21.7819 0.359033 21.8927 0.40454L27.2579 3.04398C27.4353 3.135 27.5461 3.29427 27.5461 3.49906C27.5461 3.70384 27.4353 3.86312 27.2579 3.95413L21.8705 6.61633C21.7597 6.66183 21.6488 6.66183 21.5601 6.59357C21.3163 6.4343 21.1389 5.8882 21.0946 5.5924C20.1634 5.13733 13.468 1.99731 6.83904 5.63791C6.7947 5.70617 6.75036 5.8882 6.72819 6.00197C6.63951 6.29777 6.59517 6.54806 6.39563 6.61633C6.35129 6.63908 6.30695 6.63908 6.26261 6.63908C6.21827 6.63908 6.17393 6.63908 6.12959 6.61633L0.742195 3.95413C0.564833 3.86312 0.453979 3.70384 0.453979 3.49906C0.453979 3.31703 0.564833 3.135 0.742195 3.04398Z" fill="white"/>
</svg>
