<svg width="20" height="20" viewBox="0 0 20 20" fill="none" xmlns="http://www.w3.org/2000/svg">
<path d="M17.7649 19.3585H2.23479C1.13607 19.3585 0.430054 19.0194 0.134538 18.3511C-0.294328 17.3773 0.431749 16.2837 0.516505 16.1629C0.539672 16.1302 0.564534 16.0993 0.592786 16.0707L7.53883 9.04513C7.79959 8.78431 8.20105 8.80445 8.43696 9.0939C8.67286 9.38336 8.65309 9.83044 8.39317 10.0941L1.49487 17.0709C1.3409 17.3179 1.24004 17.6451 1.27648 17.7272C1.27733 17.7291 1.42368 17.9433 2.23508 17.9433H17.7661C18.5783 17.9433 18.7249 17.7291 18.7255 17.7272C18.7619 17.646 18.6608 17.3198 18.5065 17.0709L10.7378 9.23454C10.3089 8.77298 10.2555 8.32559 10.2838 8.03016C10.3451 7.37259 10.8333 6.99882 10.931 6.93054C10.9675 6.90474 11.0056 6.88366 11.046 6.86699C11.9176 6.50297 12.5036 5.56004 12.5036 4.5202C12.5036 3.13491 11.4921 2.00761 10.249 2.00761C9.00539 2.00761 7.99284 3.13491 7.99284 4.5202C7.99284 4.91096 7.70806 5.22811 7.35717 5.22811C7.00628 5.22811 6.7215 4.91096 6.7215 4.5202C6.7215 2.35401 8.30446 0.591797 10.249 0.591797C12.1936 0.591797 13.7749 2.35432 13.7749 4.5202C13.7749 6.11031 12.8977 7.55633 11.5831 8.15286C11.5794 8.15695 11.5772 8.15978 11.5738 8.16293C11.5831 8.17394 11.5936 8.18684 11.6068 8.20163L19.4069 16.0707C19.4346 16.0984 19.4601 16.1289 19.4832 16.1619C19.5671 16.2837 20.2943 17.3767 19.8657 18.3511C19.5705 19.0194 18.8645 19.3585 17.7649 19.3585Z" fill="white"/>
</svg>
